PathFileType	4	(X/Y/Z)	OpenSim_Sub07_CSStiffKnee_Magnet.trc
DataRate	CameraRate	NumFrames	NumMarkers	Units	OrigDataRate	OrigDataStartFrame	OrigNumFrames
100	100	40	8	m	100	4209	6734
Frame#	Time	torso_imu_offset_imu	pelvis_imu_offset_imu	tibia_r_imu_offset_imu	femur_r_imu_offset_imu	tibia_l_imu_offset_imu	femur_l_imu_offset_imu	toes_r_imu_offset_imu	toes_l_imu_offset_imu
				X1	Y1	Z1	X2	Y2	Z2	X3	Y3	Z3	X4	Y4	Z4	X5	Y5	Z5	X6	Y6	Z6	X7	Y7	Z7	X8		Y8	Z8	

4209	42.08000000	0.93764927	0.22170006	0.04452734	-0.71554596	0.20011116	-0.64753186	-0.07735488	-0.82538407	0.15205510	-0.85606738	-0.08336808	-0.16959621	-0.65097254	0.49058777	0.22543594	-0.58739542	-0.19122913	0.33850825	-0.76156545	-0.40780471	0.28431001	-0.75949195	-0.22861943	-0.35442968
4210	42.09000000	0.93371193	0.22920440	0.04183726	-0.71544392	0.20541674	-0.64777270	-0.08938844	-0.82058064	0.14735645	-0.86108773	-0.07578247	-0.16421759	-0.64681961	0.49471623	0.22536743	-0.58324786	-0.18440633	0.34395607	-0.76347915	-0.41235648	0.26115993	-0.75626823	-0.22895358	-0.34928232
4211	42.10000000	0.93244769	0.22755246	0.04701000	-0.71605065	0.20151642	-0.64047394	-0.11027691	-0.82082232	0.14526895	-0.86566400	-0.06406811	-0.15425427	-0.64535397	0.50088172	0.22087275	-0.57744910	-0.18086354	0.34722948	-0.76730841	-0.41464004	0.23198075	-0.75395910	-0.23194267	-0.34442117
4212	42.11000000	0.93455493	0.22340667	0.04512214	-0.71363810	0.20460297	-0.64728861	-0.12850080	-0.81712247	0.13656058	-0.86475650	-0.06104966	-0.15061507	-0.64701228	0.49751869	0.22207825	-0.57509004	-0.17333377	0.35052536	-0.77510971	-0.41812256	0.20213843	-0.75876445	-0.23393911	-0.33992307
4213	42.12000000	0.92859804	0.22388834	0.04735875	-0.70948200	0.20671344	-0.65018504	-0.15427797	-0.81885354	0.13611720	-0.86531137	-0.05088654	-0.14657249	-0.64603675	0.50824240	0.22454546	-0.58017113	-0.16247600	0.35718550	-0.77841723	-0.41624519	0.17747363	-0.76063804	-0.22818360	-0.34440987
4214	42.13000000	0.93326888	0.22234596	0.04791300	-0.71052169	0.21214882	-0.65031531	-0.18074242	-0.80686000	0.13505176	-0.87319707	-0.04367947	-0.14518285	-0.63856394	0.51012200	0.22883817	-0.57101573	-0.16173204	0.35575644	-0.78341470	-0.40863861	0.14875877	-0.75812824	-0.23882732	-0.33751772
4215	42.14000000	0.93462032	0.22720664	0.04438927	-0.70750293	0.21308350	-0.64985782	-0.21000461	-0.79993155	0.13246407	-0.86499514	-0.03552549	-0.14215620	-0.63909339	0.51731733	0.22941867	-0.56368335	-0.15779661	0.35120117	-0.79050790	-0.40187872	0.11762456	-0.75586216	-0.23917766	-0.33957761
4216	42.15000000	0.93137729	0.22594262	0.04372831	-0.70856299	0.21161373	-0.65219474	-0.23772408	-0.79366889	0.12911514	-0.86813975	-0.03597592	-0.13832339	-0.63735397	0.51999068	0.23083562	-0.56097828	-0.15183510	0.35762174	-0.79920428	-0.39609148	0.08887293	-0.75575688	-0.23664742	-0.34049276
4217	42.16000000	0.93379835	0.23391338	0.05337632	-0.70410607	0.21648805	-0.65775702	-0.26699770	-0.78351154	0.13021156	-0.87243653	-0.03039634	-0.13532032	-0.63675458	0.52475106	0.23349527	-0.56150130	-0.15093120	0.36369228	-0.80783540	-0.38692526	0.05363607	-0.75133474	-0.24160330	-0.33739329
4218	42.17000000	0.93228794	0.23402528	0.04943913	-0.70220293	0.21503581	-0.65386413	-0.29459636	-0.77268330	0.14150035	-0.86917397	-0.02506664	-0.12820026	-0.63136775	0.53062732	0.23086386	-0.56057186	-0.15040835	0.36758743	-0.81526274	-0.38274899	0.01359204	-0.75482204	-0.24295476	-0.33639650
4219	42.18000000	0.93169071	0.23019772	0.05317654	-0.70098922	0.21903615	-0.65320855	-0.32532443	-0.76136791	0.15049919	-0.87704540	-0.01981595	-0.12085873	-0.62442024	0.52982404	0.23506692	-0.55435684	-0.14794189	0.36926939	-0.81848544	-0.37278892	-0.02538806	-0.74921314	-0.24182077	-0.33474761
4220	42.19000000	0.93318207	0.23298464	0.05208285	-0.69995940	0.21843837	-0.65582136	-0.35649548	-0.74418909	0.15919979	-0.87284760	-0.01699101	-0.11800586	-0.62285217	0.53622246	0.23662705	-0.54662463	-0.14107324	0.37284573	-0.82122257	-0.36445209	-0.07144115	-0.74480194	-0.24122864	-0.33252392
4221	42.20000000	0.93503916	0.22957373	0.06006332	-0.69538205	0.21876267	-0.66299964	-0.38761435	-0.72806377	0.16450183	-0.87330978	-0.01817076	-0.12015874	-0.62308785	0.53879000	0.23637589	-0.54327276	-0.13168896	0.38399919	-0.82071212	-0.35913857	-0.11005764	-0.74130470	-0.24142242	-0.33668602
4222	42.21000000	0.93525926	0.23173850	0.06172562	-0.69456905	0.21892726	-0.66861811	-0.42112885	-0.70208737	0.17873882	-0.87632769	-0.01151655	-0.11393104	-0.61702942	0.54611216	0.23785764	-0.54219988	-0.13103693	0.38631081	-0.81149828	-0.34738315	-0.15582352	-0.74227414	-0.23920294	-0.33637582
4223	42.22000000	0.92528002	0.23245505	0.06046658	-0.69299265	0.21796896	-0.66464154	-0.45172573	-0.68188371	0.18820188	-0.87401313	-0.01351382	-0.11479483	-0.61426498	0.55223799	0.23138918	-0.54097166	-0.12677129	0.38240398	-0.80347714	-0.33468454	-0.19879563	-0.74060400	-0.24214045	-0.33967682
4224	42.23000000	0.92888856	0.23649480	0.06158883	-0.69024246	0.21710737	-0.66630209	-0.48674056	-0.65564207	0.18870831	-0.87398136	-0.01263382	-0.11058495	-0.60837454	0.55525597	0.23638600	-0.53311466	-0.12700085	0.39488325	-0.79120630	-0.32273471	-0.24152445	-0.74163298	-0.23748396	-0.34431279
4225	42.24000000	0.93317495	0.23503894	0.05999519	-0.69229234	0.21826266	-0.66535433	-0.51572837	-0.63443608	0.18877470	-0.87578148	-0.01579990	-0.10877166	-0.60598699	0.55970879	0.24054278	-0.52824201	-0.13165496	0.39338256	-0.77064579	-0.31122615	-0.27055725	-0.74583997	-0.23911720	-0.34411902
4226	42.25000000	0.93072549	0.23379991	0.06328832	-0.68882858	0.21699888	-0.66964447	-0.54003566	-0.61444517	0.17253067	-0.87710413	-0.01823401	-0.11709259	-0.60271555	0.56658612	0.23639663	-0.52963234	-0.12370917	0.39616070	-0.74804106	-0.30011848	-0.30008927	-0.74154020	-0.23549592	-0.34056640
4227	42.26000000	0.93098869	0.23707459	0.06368246	-0.68879712	0.21840293	-0.66874038	-0.56686129	-0.60065386	0.15056929	-0.87087857	-0.02828757	-0.11755512	-0.60262455	0.57138558	0.23700661	-0.52729155	-0.12333333	0.39897724	-0.72891586	-0.29341530	-0.32932094	-0.74645061	-0.23010626	-0.34970523
4228	42.27000000	0.93085805	0.23620865	0.06675053	-0.68860130	0.21649358	-0.67005327	-0.58697580	-0.57954030	0.14142976	-0.86783113	-0.03073006	-0.11442782	-0.59592294	0.57899713	0.23798702	-0.52203437	-0.11596219	0.39787106	-0.70817441	-0.28572435	-0.35376259	-0.74730882	-0.23322024	-0.35869017
4229	42.28000000	0.93153681	0.23562823	0.06878392	-0.68716379	0.21615133	-0.67461636	-0.60690852	-0.56409333	0.12252355	-0.86724219	-0.03812642	-0.11984258	-0.58926189	0.57911505	0.23229872	-0.51860189	-0.11329256	0.39390998	-0.68449036	-0.28562077	-0.37203313	-0.74642714	-0.22901775	-0.35348646
4230	42.29000000	0.92918806	0.24258175	0.06258686	-0.69229263	0.21500331	-0.67114362	-0.62339201	-0.55006447	0.10303356	-0.87304814	-0.04829010	-0.11915005	-0.58965539	0.59008770	0.23476850	-0.50951403	-0.11294943	0.40130371	-0.66467751	-0.28554044	-0.38860509	-0.75386084	-0.22818562	-0.35435949
4231	42.30000000	0.92811632	0.23965022	0.06854588	-0.69018318	0.21626883	-0.66268303	-0.63534408	-0.53714526	0.08196782	-0.86875968	-0.05050616	-0.11523275	-0.58843489	0.59358729	0.23370886	-0.50803013	-0.10991191	0.40655622	-0.64465370	-0.27723723	-0.40263204	-0.75152526	-0.22586972	-0.35462291
4232	42.31000000	0.93224942	0.24427430	0.06658611	-0.68807075	0.21443696	-0.66739874	-0.65221257	-0.52182338	0.06154699	-0.86755211	-0.05633909	-0.11526555	-0.58636393	0.60195197	0.22996006	-0.50979545	-0.10524205	0.41055156	-0.63119762	-0.27466705	-0.42001291	-0.75904619	-0.22478289	-0.35735167
4233	42.32000000	0.92864320	0.24417735	0.07168917	-0.68394565	0.21419387	-0.67306888	-0.66098055	-0.50472861	0.05409932	-0.86587533	-0.05780138	-0.11131088	-0.57758350	0.60826263	0.22662653	-0.50637687	-0.10140435	0.40977817	-0.61361440	-0.28023833	-0.43381154	-0.76556908	-0.21470943	-0.35905410
4234	42.33000000	0.93059277	0.23759897	0.07278274	-0.68872840	0.21168385	-0.66882501	-0.66788998	-0.49395973	0.03574630	-0.87176210	-0.06013167	-0.10396029	-0.57444481	0.61292438	0.22878585	-0.50288229	-0.09970949	0.41247618	-0.60435821	-0.27754799	-0.45081597	-0.76650170	-0.21323197	-0.35891631
4235	42.34000000	0.92900692	0.23970526	0.07379618	-0.69088950	0.21009752	-0.66619139	-0.67667275	-0.49175010	0.02382150	-0.87002324	-0.06165968	-0.10270125	-0.56828944	0.62171275	0.22755522	-0.49928887	-0.09632966	0.41291409	-0.59364726	-0.27036764	-0.46129794	-0.77383634	-0.20842558	-0.35860266
4236	42.35000000	0.93098866	0.23817690	0.07368016	-0.69113833	0.21083298	-0.66448465	-0.68517930	-0.48092909	0.02298098	-0.86858737	-0.06597282	-0.10536586	-0.56092433	0.62167470	0.22403261	-0.49466876	-0.09388739	0.42055257	-0.58424502	-0.26595645	-0.47684247	-0.77757888	-0.20822600	-0.36005436
4237	42.36000000	0.92697196	0.23968823	0.07218647	-0.68733745	0.21248036	-0.66872059	-0.68932981	-0.47440435	0.01845004	-0.86772416	-0.07215088	-0.09967806	-0.55887303	0.62611139	0.22084491	-0.49810688	-0.09514139	0.41998832	-0.57942468	-0.26601387	-0.48572154	-0.78348019	-0.20419459	-0.35891346
4238	42.37000000	0.92547371	0.23760775	0.07679377	-0.68747677	0.20865282	-0.65969580	-0.69061309	-0.47578113	0.01812529	-0.86697445	-0.06904689	-0.09945783	-0.55042805	0.63406802	0.21914029	-0.49485575	-0.08528251	0.42221099	-0.57798695	-0.25907181	-0.48848218	-0.79341922	-0.19267526	-0.35138538
4239	42.38000000	0.92865132	0.23733962	0.06864369	-0.68882183	0.20709319	-0.66753138	-0.69260025	-0.47236746	0.02583182	-0.86836747	-0.06657386	-0.10161204	-0.54434388	0.64798818	0.21074990	-0.48824406	-0.07890164	0.42160483	-0.57589516	-0.25066688	-0.48950854	-0.80203972	-0.19231461	-0.34743687
4240	42.39000000	0.92668376	0.23571197	0.07122762	-0.69150076	0.20993790	-0.66583772	-0.68561074	-0.47534605	0.02507007	-0.86606525	-0.06720548	-0.09625883	-0.54022360	0.64970394	0.20898625	-0.49191707	-0.08170526	0.41790491	-0.57931477	-0.25361445	-0.47663290	-0.80721804	-0.18829105	-0.34109278
4241	42.40000000	0.93002340	0.23977360	0.07246674	-0.68561915	0.20068111	-0.66224265	-0.68607402	-0.47739338	0.03354449	-0.86690782	-0.07223206	-0.08862643	-0.52931603	0.65941134	0.20836083	-0.49286821	-0.07442251	0.42073308	-0.59348825	-0.25589972	-0.46028109	-0.81047158	-0.18233003	-0.33719349
4242	42.41000000	0.92935558	0.24035084	0.06417729	-0.68328965	0.19610479	-0.65875657	-0.68510258	-0.48273745	0.05047341	-0.86922535	-0.07249429	-0.08514037	-0.52364126	0.67271557	0.19721523	-0.49056495	-0.07039562	0.42687792	-0.60363207	-0.26027241	-0.43923256	-0.81774218	-0.17725901	-0.31843678
4243	42.42000000	0.92864531	0.23236233	0.06817004	-0.68605686	0.19559740	-0.66330538	-0.67672447	-0.48800272	0.07041501	-0.87056503	-0.07305098	-0.07132986	-0.51307537	0.67866594	0.18903957	-0.48810627	-0.06680746	0.41488089	-0.60970867	-0.27301714	-0.42160650	-0.82547753	-0.17340412	-0.30527251
4244	42.43000000	0.93180531	0.23510081	0.06444457	-0.68716983	0.18982320	-0.66461913	-0.67283032	-0.49020121	0.09024358	-0.86713319	-0.07465214	-0.06003471	-0.50047023	0.69685908	0.18966009	-0.48784021	-0.06335943	0.41627724	-0.61779157	-0.27340265	-0.40853969	-0.83321878	-0.17924115	-0.28903238
4245	42.44000000	0.92819509	0.23782108	0.06626668	-0.68725936	0.19334650	-0.66164820	-0.66997634	-0.49488034	0.09081944	-0.86365688	-0.09200657	-0.06066900	-0.48932236	0.70298836	0.18829829	-0.49356076	-0.05819204	0.41540269	-0.62426360	-0.27659903	-0.39353614	-0.84214921	-0.17805999	-0.26873392
4246	42.45000000	0.93148228	0.23475755	0.06354666	-0.68672872	0.18814820	-0.66705028	-0.66807274	-0.49819753	0.08706960	-0.86282006	-0.10141552	-0.06290854	-0.47572561	0.71403954	0.17228169	-0.50064656	-0.05907778	0.40547602	-0.63260382	-0.28555973	-0.37335945	-0.84894640	-0.17390022	-0.24471980
4247	42.46000000	0.92918855	0.23420975	0.06079332	-0.68804077	0.18761298	-0.66777747	-0.65899890	-0.50538390	0.09980374	-0.86178446	-0.10254217	-0.05718709	-0.45855652	0.71974323	0.16565309	-0.50534594	-0.05852484	0.40036660	-0.63565789	-0.29587140	-0.36863396	-0.85104691	-0.17450458	-0.21979934
4248	42.47000000	0.93705379	0.23078432	0.05732870	-0.68771700	0.19039102	-0.66412375	-0.65249483	-0.51601276	0.11636477	-0.86284347	-0.10676881	-0.05251122	-0.44411853	0.73191322	0.15666188	-0.51000485	-0.06003545	0.38916787	-0.63407486	-0.30087833	-0.37200034	-0.86429663	-0.16904062	-0.18949028
